<svg width="91" height="29" viewBox="0 0 91 29" fill="none" xmlns="http://www.w3.org/2000/svg">
<path d="M45.72 29C26.9423 29 11.72 28.3284 11.72 27.5C11.72 26.6716 26.9423 26 45.72 26C64.4977 26 79.72 26.6716 79.72 27.5C79.72 28.3284 64.4977 29 45.72 29Z" fill="#F7F8FF"/>
<path d="M15.816 19.72L2.424 7.624L3.456 8.2L3.528 19H0V0.639995H0.144L13.248 12.688L12.48 12.352L12.408 1.33599H15.912V19.72H15.816Z" fill="#F7F8FF"/>
<path d="M20.4609 1.33599H31.5009V4.696H23.9409V8.704H30.4929V12.064H23.9409V19H20.4609V1.33599Z" fill="#F7F8FF"/>
<path d="M33.6516 1.33599H45.5556V4.696H41.2596V19H37.7796V4.696H33.6516V1.33599Z" fill="#F7F8FF"/>
<path d="M48.9141 1.33599H52.3941V15.64H60.6981V19H48.9141V1.33599Z" fill="#F7F8FF"/>
<path d="M68.1531 19.288C67.1771 19.288 66.2891 19.096 65.4891 18.712C64.7051 18.312 64.0811 17.704 63.6171 16.888C63.1531 16.072 62.9211 15.032 62.9211 13.768C62.9211 12.584 63.1611 11.56 63.6411 10.696C64.1211 9.832 64.7531 9.168 65.5371 8.704C66.3211 8.224 67.1531 7.984 68.0331 7.984C69.0731 7.984 69.8571 8.16 70.3851 8.512C70.9291 8.848 71.3771 9.224 71.7291 9.64L71.5851 10.048L71.8971 8.512H75.0171V19H71.6571V16.72L71.9211 17.44C71.8891 17.44 71.7931 17.536 71.6331 17.728C71.4731 17.904 71.2331 18.12 70.9131 18.376C70.6091 18.616 70.2251 18.824 69.7611 19C69.3131 19.192 68.7771 19.288 68.1531 19.288ZM69.1131 16.552C69.5131 16.552 69.8731 16.496 70.1931 16.384C70.5131 16.256 70.7931 16.08 71.0331 15.856C71.2731 15.616 71.4811 15.32 71.6571 14.968V12.4C71.5291 12.048 71.3371 11.752 71.0811 11.512C70.8251 11.256 70.5211 11.064 70.1691 10.936C69.8171 10.792 69.4251 10.72 68.9931 10.72C68.5131 10.72 68.0651 10.848 67.6491 11.104C67.2491 11.344 66.9291 11.68 66.6891 12.112C66.4491 12.544 66.3291 13.04 66.3291 13.6C66.3291 14.16 66.4571 14.664 66.7131 15.112C66.9691 15.56 67.3051 15.912 67.7211 16.168C68.1531 16.424 68.6171 16.552 69.1131 16.552Z" fill="#F7F8FF"/>
<path d="M85.3672 19.288C84.4873 19.288 83.7432 19.144 83.1352 18.856C82.5432 18.552 82.0232 18.16 81.5752 17.68L81.8392 16.96V19H78.4792V0.0639954H81.8152V10.312V9.232C82.2312 8.88 82.7832 8.584 83.4713 8.344C84.1593 8.104 84.9433 7.984 85.8232 7.984C86.7353 7.984 87.5673 8.2 88.3193 8.632C89.0713 9.064 89.6712 9.696 90.1192 10.528C90.5832 11.344 90.8153 12.344 90.8153 13.528C90.8153 14.712 90.5592 15.736 90.0472 16.6C89.5512 17.464 88.8873 18.128 88.0553 18.592C87.2233 19.056 86.3272 19.288 85.3672 19.288ZM84.6233 16.456C85.1193 16.456 85.5752 16.328 85.9912 16.072C86.4232 15.816 86.7673 15.464 87.0233 15.016C87.2793 14.568 87.4072 14.064 87.4072 13.504C87.4072 12.944 87.2793 12.448 87.0233 12.016C86.7673 11.584 86.4232 11.248 85.9912 11.008C85.5752 10.752 85.1193 10.624 84.6233 10.624C84.1913 10.624 83.7833 10.696 83.3993 10.84C83.0312 10.968 82.7113 11.16 82.4392 11.416C82.1833 11.656 81.9832 11.952 81.8392 12.304V14.872C82.0312 15.224 82.2553 15.52 82.5113 15.76C82.7833 15.984 83.0953 16.16 83.4473 16.288C83.7992 16.4 84.1913 16.456 84.6233 16.456Z" fill="#F7F8FF"/>
</svg>
